# xmcd
#
# Track frame offsets: 
#        150
#        13593
#        31999
#        49414
#        63233
#        76240
#        86944
#        100979
#        111618
#        130038
#        145174
#        153738
#        171323
#
# Disc length: 2488 seconds
#
# Revision: 2
# Processed by: cddbd v1.5.2PL0 Copyright (c) Steve Scherf et al.
# Submitted via: ExactAudioCopyFreeDBPlugin 1.0
#
DISCID=b409b60d
DTITLE=Ike and Tina Turner - The Collection [Entertain Me Europe]
DYEAR=2008
DGENRE=Rhythm and Blues
TTITLE0=I Wanna Take You Higher
TTITLE1=Bootsy Whitelaw
TTITLE2=Golden Empire (version 1)
TTITLE3=Shame, Shame, Shame
TTITLE4=Stagger Lee
TTITLE5=Suffering the Blues
TTITLE6=Rockin' and Rollin'
TTITLE7=Honey Child, I'm Over You
TTITLE8=Only Woman Bleed
TTITLE9=Uncle Ekil
TTITLE10=This Man's Crazy
TTITLE11=Give it to Me
TTITLE12=It's All Over Now (live)
EXTD=
EXTT0=
EXTT1=
EXTT2=
EXTT3=
EXTT4=
EXTT5=
EXTT6=
EXTT7=
EXTT8=
EXTT9=
EXTT10=
EXTT11=
EXTT12=
PLAYORDER=
